<svg id="Layer_1" xmlns="http://www.w3.org/2000/svg" viewBox="0 0 74 73.6"><style>.st0{fill:#cbe5f2;stroke:#8b9dae;stroke-miterlimit:10}.st1{fill:none;enable-background:new}.st2{fill:#8b9dae}.st3{fill:#59738a}.st4{fill:none;stroke:#8b9dae;stroke-miterlimit:10}</style><path class="st0" d="M66 19v51c0 1.7-1.3 3-3 3H11c-1.7 0-3-1.3-3-3l-.3-50.2L37 1l29 18z"/><path class="st2" d="M3 25L.7 23.6l36-23L38 2 3 25z"/><path class="st2" d="M74 23l-2 2L35.6 1.3 37.3.1 74 23z"/><circle class="st3" cx="37" cy="39" r="4"/><path class="st3" d="M33.5 56h1c.8 0 1.5.7 1.5 1.5v7c0 .8-.7 1.5-1.5 1.5h-1c-.8 0-1.5-.7-1.5-1.5v-7c0-.8.7-1.5 1.5-1.5zm6 0h1c.8 0 1.5.7 1.5 1.5v7c0 .8-.7 1.5-1.5 1.5h-1c-.8 0-1.5-.7-1.5-1.5v-7c0-.8.7-1.5 1.5-1.5zM21 58h9c.6 0 1 .4 1 1v1c0 .6-.4 1-1 1h-9c-.6 0-1-.4-1-1v-1c0-.6.4-1 1-1z"/><path class="st3" d="M53 61h-9c-.6 0-1-.4-1-1v-1c0-.6.4-1 1-1h2s-2-4.9-3-5-1 2-1 2-1-2-2-2-2 1-2 1-.8 2.9-2 0c-.1-.3-.2-.8-1-1-1.1-.2-3 2-3 2s.6-2.5 0-2c-1.5 1.2-4 5-4 5h-2s5.4-12.6 6-13c.7-.4 3 0 3 0s-.2.3 1 1 3.2-.3 3-1c1.2-.6 2.2-.8 3 0s6 13 6 13h5c.6 0 1 .4 1 1v1c0 .6-.4 1-1 1z"/><path class="st4" d="M31.5 14.3s-3.5.7-3.4 2.6c0 2 3.3 1 3.3 3.8 0 2.5-3.2 1-3.3 3.6 0 2.1 3.6.8 3.6 3.5 0 2.2-3.6 2.4-3.6 2.4m10.3-15.9s-3.5.7-3.4 2.6c0 2 3.3 1 3.3 3.8 0 2.5-3.2 1-3.3 3.6 0 2.1 3.6.8 3.6 3.5 0 2.2-3.6 2.4-3.6 2.4m10.4-15.9s-3.5.7-3.4 2.6c0 2 3.3 1 3.3 3.8 0 2.5-3.2 1-3.3 3.6 0 2.1 3.6.8 3.6 3.5 0 2.2-3.6 2.4-3.6 2.4"/></svg>