<svg id="Layer_1" xmlns="http://www.w3.org/2000/svg" viewBox="0 0 87 84"><style>.st0{fill:#b2d3e5;stroke:#8b9dae}.st1{fill:#476077}.st2,.st3{fill:#fff;stroke:#476077}.st3{enable-background:new}.st4{fill:#b2d3e5}</style><path class="st0" d="M47.6 45.3c16.8-16.6 33.7-26.7 37.6-22.6 4 4.1-6.4 20.8-23.2 37.3S28.4 86.7 24.4 82.6c-4-4 6.4-20.7 23.2-37.3z"/><path class="st1" d="M31.4 68.4l-.7-.7 34-34 .7.7-34 34zm9.9 8l-.7-.7 34-33 .7.7-34 33z"/><path class="st1" d="M44.4 74.7l-.7.7-16-17 .7-.7 16 17zm2.2-33.3l.7-.7 17 17-.7.7-17-17zM82 25l.7.7-3 3-.7-.7 3-3z"/><ellipse transform="rotate(-50.128 77.943 29.666)" class="st2" cx="77.9" cy="29.7" rx="3.2" ry="2.2"/><path class="st3" d="M53.8 52.8c3.5 1.9 3.2 7.3-.5 12-3.8 4.7-9.6 7-13.1 5.1-3.5-1.9-3.2-7.3.5-12s9.6-7.1 13.1-5.1zM72 35c3.5 1.9 3.4 7.3-.3 12.1-3.7 4.8-9.5 7.1-13 5.3-3.5-1.9-3.4-7.3.3-12.1 3.7-4.9 9.5-7.2 13-5.3z"/><path class="st4" d="M35.7 65.4l-.7.7L20.8 51l.7-.8m10-6.2l.6-.8 11.2 10.4-.6.8L31.5 44zm10.1-7.6l.7-.7 10 10-.7.7-10-10zm8-11l.7-.7 11 11-.7.7-11-11z"/><path class="st0" d="M24.6 24.3C41.4 7.8 58.3-2.4 62.3 1.7c4 4.1-6.4 20.8-23.2 37.3S5.4 65.7 1.4 61.6c-4-4 6.4-20.7 23.2-37.3z"/><path class="st1" d="M8.4 47.4l-.7-.7 34-34 .7.7-34 34zm9.9 8l-.7-.7 34-33 .7.7-34 33z"/><path class="st1" d="M35.9 65.7l-.7.7-23.5-25 .7-.7 23.5 25zm-5.3-41.3l.7-.7 22.1 22.7-.7.7-22.1-22.7zm-.2 17.5l.7-.7 13.3 13.6-.7.7-13.3-13.6zM49.3 24l.7-.7 13.1 13.8-.7.7L49.3 24zm9.4-20.2l.7.7-3 3-.7-.7 3-3z"/><ellipse transform="rotate(-47.002 54.32 8.73)" class="st2" cx="54.3" cy="8.7" rx="3.2" ry="2.2"/><ellipse transform="rotate(-47.002 7.645 55.355)" class="st2" cx="7.6" cy="55.4" rx="3.2" ry="2.2"/><ellipse transform="rotate(-47.002 30.348 76.354)" class="st2" cx="30.4" cy="76.4" rx="3.2" ry="2.2"/><path class="st3" d="M30.8 31.2c3.4 2.1 2.9 7.5-1 12s-9.9 6.6-13.3 4.5c-3.4-2.1-2.9-7.5 1-12s9.9-6.5 13.3-4.5zM50 13.9c3.3 2.3 2.5 7.6-1.7 11.9s-10.3 6-13.6 3.8c-3.3-2.3-2.5-7.6 1.7-11.9s10.3-6 13.6-3.8z"/></svg>