<svg id="Layer_1" xmlns="http://www.w3.org/2000/svg" viewBox="0 0 106 68"><style>.st0{fill:#8b9dae}.st1{fill:#b2d3e5}.st2{fill:#8598a9}.st3{fill:#cfe6f2}.st4{fill:#fff}.st5{fill:#accee1}.st6{fill:#a2a2a2}.st7{fill:#dff0f9}.st8{fill:#a7bed3}</style><path class="st0" d="M18.7.1C21.3-.1 89 .1 89 .1c6.6 0 12 5.8 12 13V47c0 7.2-5.4 13-12 13H18.7C12.1 60 4.4 56 4 49.4c-.4-6.7 2.7-36.2 2.7-36.2C8 6.2 16.1.3 18.7.1z"/><path class="st1" d="M19.4 1.1c2.6-.2 69.2 0 69.2 0 6.5 0 11.8 5.7 11.8 12.8v33.2c0 7.1-5.3 12.8-11.8 12.8H19.4C12.9 59.9 5.3 56 5 49.5 4.6 43 7.5 13.9 7.5 13.9 8.8 7.2 16.8 1.3 19.4 1.1z"/><path class="st2" d="M25.8 29.2h71.6c2.5 0 3.6 1.6 3.6 4.2V51c0 2.6-4.5 8.6-8.9 9.3h-77c-.8-.4-10.2-1.8-11.2-11.1 1.8-4.9 2.6-10.3 7.6-14.8 5.3-5 13.1-5.2 14.3-5.2z"/><path class="st3" d="M25.6 30.3l70.4-.4c2.4-.2 3.9 1.1 4.2 2.9v18.1c-.6 2-1.8 3.6-3.5 5.4-1.6 1.7-4 2.8-5.8 3.1H15c-1.3-.6-10.9-3.1-10.2-10.9.9-3.5 1.7-7.6 6.7-13.2s12.8-5 14.1-5z"/><path class="st0" d="M80.6 6H93c1.6 0 3 1.3 3 2.9V22c0 1.6-1.3 2.9-3 2.9H80.6c-1.6 0-3-1.3-3-2.9V8.9c0-1.6 1.3-2.9 3-2.9z"/><path class="st4" d="M81.3 7h11.1C93.8 7 95 8.2 95 9.6v11.7c0 1.4-1.2 2.6-2.7 2.6h-11c-1.5 0-2.7-1.2-2.7-2.6V9.6c0-1.4 1.2-2.6 2.7-2.6z"/><path class="st0" d="M60 6h12.4c1.6 0 3 1.3 3 2.9v13.2c0 1.6-1.3 2.9-3 2.9H60c-1.6 0-3-1.3-3-2.9V8.9C57 7.3 58.4 6 60 6z"/><path class="st4" d="M60.7 7h11.1c1.5 0 2.7 1.2 2.7 2.6v11.7c0 1.4-1.2 2.6-2.7 2.6H60.7c-1.5 0-2.7-1.2-2.7-2.6V9.6C58 8.2 59.2 7 60.7 7z"/><path class="st0" d="M39.5 6h12.4c1.6 0 3 1.3 3 2.9v13.2c0 1.6-1.3 2.9-3 2.9H39.5c-1.6 0-3-1.3-3-2.9V8.9c0-1.6 1.3-2.9 3-2.9z"/><path class="st4" d="M40.1 7h11.1c1.5 0 2.7 1.2 2.7 2.6v11.7c0 1.4-1.2 2.6-2.7 2.6H40.1c-1.5 0-2.7-1.2-2.7-2.6V9.6c.1-1.4 1.3-2.6 2.7-2.6z"/><path class="st0" d="M18.3 6h10.8c2.7 0 4.9 2.2 4.9 4.9v9.2c0 2.7-2.2 4.9-4.9 4.9H15.9c-2.7 0-4.9-1.2-4.9-3.9l2.4-10.2c.1 0 .6-4.8 4.9-4.9z"/><path class="st4" d="M18.7 6.9h9.8c2.5 0 4.5 2 4.5 4.4v8.4c0 2.4-2 4.4-4.5 4.4h-12C14 24.1 12 23 12 20.6l2.2-9.3c.1 0 .6-4.3 4.5-4.4z"/><circle class="st2" cx="31.2" cy="57.8" r="9.3"/><circle class="st5" cx="31.2" cy="57.8" r="8.6"/><circle class="st2" cx="80.7" cy="57.8" r="9.3"/><circle class="st5" cx="80.7" cy="57.8" r="8.6"/><circle class="st0" cx="31.2" cy="57.8" r="4.5"/><circle class="st4" cx="31.2" cy="57.8" r="3.5"/><circle class="st0" cx="80.8" cy="57.9" r="4.5"/><circle class="st4" cx="80.8" cy="57.9" r="3.5"/><path class="st6" d="M2 41.1v-6.3c0-.4.6-.8 1.3-.8h1.3c.8 0 1.4.4 1.4.9v6.3c0 .4-.6.8-1.4.8H3.3c-.7 0-1.3-.4-1.3-.9z"/><path class="st7" d="M2.8 40.5v-5.1c0-.4.4-.7.8-.7h.8c.4 0 .8.3.8.7v5.1c0 .4-.4.7-.8.7h-.8c-.4 0-.8-.3-.8-.7z"/><path class="st0" d="M8.8 50.9H2C1 50.9.1 50 .1 49v-.6c0-1.1.9-1.9 1.9-1.9h6.7c1.1 0 1.9.9 1.9 1.9v.6c.1 1-.8 1.9-1.8 1.9z"/><path class="st8" d="M8.2 50.6H2.6c-1.1 0-1.9-.9-1.9-1.9 0-1.1.9-1.9 1.9-1.9h5.7c1.1 0 1.9.9 1.9 1.9 0 1-.9 1.9-2 1.9z"/><path class="st0" d="M103.6 51.4h-6.7c-1.1 0-1.9-.9-1.9-1.9v-.6c0-1.1.9-1.9 1.9-1.9h6.7c1.1 0 1.9.9 1.9 1.9v.6c0 1-.9 1.9-1.9 1.9z"/><path class="st8" d="M103 51.1h-5.7c-1.1 0-1.9-.9-1.9-1.9 0-1.1.9-1.9 1.9-1.9h5.7c1.1 0 1.9.9 1.9 1.9.1 1-.8 1.9-1.9 1.9z"/></svg>