<svg xmlns="http://www.w3.org/2000/svg" preserveAspectRatio="xMidYMid" width="24" height="24" viewBox="0 0 24 24"><defs><style>.cls-1{fill:#fff;fill-rule:evenodd}</style></defs><path d="M3.78.009h12.177c2.758 0 4.821-.194 6.405.992 1.629 1.217 1.549 3.239 1.549 6.089v10.126c0 2.683-.05 4.618-1.549 5.736-1.855 1.387-4.934.992-8.094.992H3.78c-1.027-.254-2.124-.811-2.674-1.558C.011 20.904.12 19.245.12 16.651V7.585c0-1.792-.196-3.971.422-5.169C.928 1.669 1.744.788 2.513.433L3.78.009zm9.15 10.126h-1.478v.072c.211.332.079 2.133.071 2.691h.07c.234-.154.905-.08 1.267-.071.225.684.07 1.87.07 2.689v5.667h3.66v-8.285c.526-.179 1.46-.077 2.112-.071v.071c.071.07.07-.07.07-.071.251-.405.287-2.124.352-2.692H16.59c-.01-.856-.01-1.828.141-2.478.591-.343 1.63-.292 2.605-.283V4.612h-.071c-.677.411-2.742-.147-3.66.071-2.627.621-2.698 2.234-2.675 5.452z" class="cls-1"/></svg>