<svg id="Layer_1" xmlns="http://www.w3.org/2000/svg" viewBox="0 0 586 9"><style>.st0{fill:#d6dbe0}</style><path class="st0" d="M259 9s1-1.2 2-2.9c1.1-1.9 2-3.1 3-3.1 1.8 0 3.7 6 6 6 2.9 0 3.8-6.1 6-6 2.3.1 3 5.9 6 6 2.7.1 3.8-5.6 5.3-6 .9-.2 1.4.2 2.7 3 .5 1.9 1.7 2.7 1.7 2.7s3 1.2 4.6-2.8c.8-2 1.3-2.9 2.3-2.9 1.8 0 3.5 5.7 5.4 6 2.3.4 3.3-5.9 5.5-6 2.4 0 3.2 6.5 6.5 6 3.1-.5 2.8-6 5-6 1.2 0 1.2 0 2.2 2 2.3 4.6 3.8 4 3.8 4l.5-2.4s-.5.2-1.6-1.6c-1-1.6-2.3-4.9-4.7-4.9-3.4 0-4 6-5.2 5.9-1.8 0-3.2-5.9-6.5-5.9-2.8 0-4.2 6.1-5.4 6-1.1-.1-3-6.2-5.6-6-1 .1-2.7 1.9-3.4 4-2.1 4.6-4 0-4 0-1.1-2.7-1.9-4-3.9-4-2.6 0-3.3 6.2-5.1 6-2.4-.2-3.1-6-6-6-2.5 0-4.3 6.1-6 6-1.5-.1-3.3-6.2-5.9-6-2.1.1-4 3.4-5.1 5.4-.9 1.7-2 2.7-2 2.7l1.9.8zm-17-5v2H0V4h242zm344 0v2H344V4h242z"/></svg>