<svg id="OBJECT" xmlns="http://www.w3.org/2000/svg" viewBox="0 0 59.6 29.9"><style>.st0{fill:#476077}</style><path class="st0" d="M58.6 12.6L46.9 1c-1.1-1.1-3-1.3-4.2-.2-1.3 1.2-1.3 3.1-.1 4.3l5.3 5.3c.6.6.2 1.6-.7 1.6H28.1c-1.6 0-3.1 1.2-3.1 2.8-.1 1.7 1.3 3.1 3 3.1h19.3c.8 0 1.3 1 .7 1.6l-5.2 5.2c-1.1 1.1-1.3 3-.2 4.2 1.2 1.3 3.1 1.3 4.3.1l11.8-11.8c1.2-1.2 1.2-3.3-.1-4.6zM16.9 12h-3.4c-1.6 0-3 1.3-3 3s1.3 3 3 3h3.4c1.6 0 3-1.3 3-3s-1.3-3-3-3zM3.3 12H3c-1.6 0-3 1.3-3 3s1.3 3 3 3h.3c1.6 0 3-1.3 3-3s-1.3-3-3-3z"/></svg>