<svg xmlns="http://www.w3.org/2000/svg" xmlns:xlink="http://www.w3.org/1999/xlink" preserveAspectRatio="xMidYMid" width="10" height="14" viewBox="0 0 10 14">
  <defs>
    <style>
      .cls-1 {
        fill: #1d1e20;
        fill-rule: evenodd;
      }
    </style>
  </defs>
  <path d="M9.198,6.570 C8.988,7.068 8.681,7.496 8.276,7.856 C7.871,8.216 7.370,8.496 6.773,8.697 C6.176,8.898 5.487,8.999 4.707,8.999 L2.637,8.999 L2.637,10.000 L6.000,10.000 L6.000,11.000 L2.637,11.000 L2.637,13.824 L0.900,13.824 L0.900,11.000 L0.000,11.000 L0.000,10.000 L0.900,10.000 L0.900,9.000 L0.000,9.000 L0.000,8.000 L0.900,8.000 L0.900,0.926 L4.707,0.926 C5.523,0.926 6.233,1.020 6.836,1.210 C7.439,1.399 7.938,1.667 8.334,2.016 C8.730,2.363 9.026,2.783 9.221,3.276 C9.416,3.767 9.513,4.316 9.513,4.922 C9.513,5.522 9.408,6.071 9.198,6.570 ZM7.016,2.996 C6.509,2.534 5.739,2.303 4.707,2.303 L2.637,2.303 L2.637,7.613 L4.707,7.613 C5.205,7.613 5.645,7.548 6.026,7.415 C6.407,7.284 6.728,7.099 6.989,6.861 C7.250,6.625 7.446,6.342 7.578,6.011 C7.710,5.681 7.776,5.318 7.776,4.922 C7.776,4.100 7.523,3.459 7.016,2.996 Z" class="cls-1"/>
</svg>
