<svg xmlns="http://www.w3.org/2000/svg" xmlns:xlink="http://www.w3.org/1999/xlink" preserveAspectRatio="xMidYMid" width="40" height="40" viewBox="0 0 40 40">
  <defs>
    <style>
      .cls-1 {
        fill: #445e70;
      }

      .cls-2 {
        fill: #fff;
        fill-rule: evenodd;
      }
    </style>
  </defs>
  <circle cx="20" cy="20" r="20" class="cls-1"/>
  <path d="M20.842,10.187 C21.857,11.184 30.986,20.282 30.986,20.282 C30.986,20.282 31.058,20.596 30.861,20.843 C30.211,21.656 29.797,21.279 29.797,21.279 L21.343,12.866 L21.281,30.626 C21.281,30.626 21.184,30.840 20.968,30.938 C20.779,31.023 20.485,30.991 20.279,31.000 C20.029,31.010 19.778,30.688 19.778,30.688 L19.715,12.866 C19.715,12.866 12.442,20.104 11.241,21.300 C11.133,21.407 10.949,21.404 10.949,21.404 C10.949,21.404 10.887,21.454 10.636,21.279 C10.473,21.165 10.258,20.917 10.135,20.780 C9.951,20.575 10.010,20.407 10.010,20.407 C10.010,20.407 10.046,20.246 10.114,20.178 C11.103,19.201 18.782,11.606 20.154,10.249 C20.490,9.916 20.589,9.938 20.842,10.187 Z" class="cls-2"/>
</svg>
