<?xml version="1.0" encoding="utf-8"?>
<!-- Generator: Adobe Illustrator 19.2.0, SVG Export Plug-In . SVG Version: 6.00 Build 0)  -->
<svg version="1.1" id="Layer_1" xmlns="http://www.w3.org/2000/svg" xmlns:xlink="http://www.w3.org/1999/xlink" x="0px" y="0px"
	 viewBox="0 0 83 76.3" style="enable-background:new 0 0 83 76.3;" xml:space="preserve">
<style type="text/css">
	.st0{opacity:0.1;fill:none;enable-background:new    ;}
	.st1{fill:#B2D3E5;stroke:#476077;}
	.st2{fill:#B2D3E5;stroke:#8B9DAE;enable-background:new    ;}
	.st3{fill:#B2D3E5;stroke:#8B9DAE;}
	.st4{fill:#DFF0F9;stroke:#476077;}
</style>
<image style="overflow:visible;" width="82" height="57" xlink:href="18587A4B.png"  transform="matrix(1.0122 0 0 1 0 9)">
</image>
<path class="st0" d="z"/>
<path class="st1" d="M21.6,19.4l0.7-0.7l50.7,50.7l-0.7,0.7L21.6,19.4z"/>
<path class="st1" d="M58.7,18.6l0.7,0.7l-52,51l-0.7-0.7L58.7,18.6z"/>
<path class="st2" d="M15.5,2.2L22,10l1,10H13l-6.8-7.3c-2.5-2.2-2.7-6-0.5-8.5L7,2.7C9.2,0.2,13,0,15.5,2.2z"/>
<path class="st2" d="M74,11.2l-7.2,7.1l-9.6,2.2l-1.1-10.3l6.7-7.5c2-2.7,5.7-3.2,8.4-1.2l1.6,1.2C75.5,4.8,76,8.6,74,11.2z"/>
<circle class="st3" cx="6" cy="72" r="3"/>
<circle class="st3" cx="75" cy="72" r="3"/>
<path class="st3" d="M40.5,12c-0.9,0-8.7,16-8.7,16S14.2,30.7,14,31.5c-0.2,0.8,12.4,13.4,12.4,13.4S23.3,62.4,24.1,63
	c0.9,0.6,16.4-7.8,16.4-7.8s15.7,8.4,16.4,7.8c0.6-0.7-2.2-18.2-2.2-18.2s12.6-12,12.4-13.4C66.8,30.1,49.2,28,49.2,28L40.5,12
	L40.5,12z"/>
<path class="st4" d="M40.5,23l5.1,9.4l10.4,2l-7.2,7.9L50.1,53l-9.6-4.6L30.9,53l1.3-10.7L25,34.5l10.4-2L40.5,23"/>
</svg>
