<svg xmlns="http://www.w3.org/2000/svg" xmlns:xlink="http://www.w3.org/1999/xlink" preserveAspectRatio="xMidYMid" width="24.062" height="24" viewBox="0 0 24.062 24">
  <defs>
    <style>
      .cls-1 {
        fill: #fff;
        fill-rule: evenodd;
      }
    </style>
  </defs>
  <path d="M2.083,-0.002 C7.089,-0.002 12.096,-0.002 17.102,-0.002 C18.731,-0.002 20.360,-0.002 21.989,-0.002 C22.119,0.058 22.293,0.066 22.439,0.123 C22.706,0.229 22.962,0.376 23.178,0.537 C23.470,0.753 23.719,1.131 23.882,1.473 C23.966,1.651 23.980,1.893 24.062,2.067 C24.062,3.200 24.062,4.333 24.062,5.467 C24.062,9.725 24.062,13.983 24.062,18.240 C24.062,19.470 24.062,20.700 24.062,21.929 C23.980,22.101 23.966,22.346 23.882,22.523 C23.719,22.864 23.469,23.242 23.178,23.458 C22.951,23.626 22.673,23.789 22.385,23.889 C22.262,23.933 22.106,23.899 21.989,23.961 C21.989,23.973 21.989,23.986 21.989,23.998 C21.261,23.998 20.534,23.998 19.807,23.998 C17.770,23.998 15.732,23.998 13.695,23.998 C10.780,23.998 7.864,23.998 4.950,23.998 C3.994,23.998 3.039,23.998 2.083,23.998 C2.083,23.986 2.083,23.973 2.083,23.961 C1.966,23.899 1.810,23.933 1.686,23.889 C1.399,23.789 1.121,23.626 0.893,23.458 C0.601,23.240 0.355,22.865 0.190,22.523 C0.104,22.345 0.089,22.102 0.010,21.929 C0.010,20.298 0.010,18.667 0.010,17.035 C0.010,13.552 0.010,10.066 0.010,6.582 C0.010,5.539 0.010,4.496 0.010,3.452 C0.010,2.830 -0.029,2.145 0.118,1.670 C0.297,1.096 0.729,0.611 1.200,0.321 C1.386,0.207 1.613,0.145 1.831,0.070 C1.919,0.040 2.036,0.070 2.083,-0.002 ZM10.756,7.194 C10.625,7.271 10.332,7.206 10.161,7.248 C9.810,7.337 9.221,7.482 9.205,7.877 C9.211,7.877 9.217,7.877 9.223,7.877 C9.223,7.884 9.223,7.889 9.223,7.896 C9.580,7.897 9.922,8.112 10.052,8.345 C10.140,8.502 10.169,8.738 10.215,8.921 C10.221,9.125 10.227,9.330 10.233,9.534 C10.278,9.744 10.290,10.045 10.251,10.217 C10.251,10.355 10.251,10.493 10.251,10.631 C10.221,10.762 10.251,10.927 10.215,11.080 C10.119,11.489 10.105,11.628 9.854,11.890 C9.271,11.884 9.090,11.459 8.844,11.116 C8.321,10.388 7.868,9.584 7.456,8.741 C7.234,8.286 7.182,7.772 6.645,7.627 C6.422,7.627 6.200,7.627 5.978,7.627 C5.455,7.627 4.932,7.627 4.409,7.627 C4.106,7.627 3.795,7.631 3.670,7.806 C3.535,7.974 3.753,8.442 3.814,8.561 C4.030,8.991 4.212,9.447 4.445,9.875 C4.565,10.094 4.715,10.332 4.824,10.559 C5.179,11.297 5.612,11.987 6.050,12.645 C6.911,13.941 7.795,15.249 9.205,15.991 C9.798,16.305 10.441,16.462 11.188,16.640 C11.291,16.640 11.393,16.640 11.495,16.640 C11.667,16.677 11.923,16.657 12.126,16.657 C12.653,16.657 13.284,16.743 13.424,16.351 C13.501,16.138 13.419,15.879 13.478,15.631 C13.559,15.295 13.632,15.002 13.803,14.768 C13.882,14.661 14.052,14.485 14.290,14.552 C14.675,14.661 15.077,15.158 15.299,15.451 C15.383,15.562 15.522,15.647 15.606,15.757 C15.920,16.172 16.361,16.567 16.904,16.747 C17.181,16.840 17.502,16.783 17.842,16.783 C18.049,16.783 18.314,16.804 18.491,16.766 C18.641,16.766 18.791,16.766 18.941,16.766 C19.447,16.766 19.902,16.773 20.203,16.585 C20.313,16.517 20.404,16.476 20.420,16.315 C20.486,16.214 20.423,16.047 20.384,15.956 C20.268,15.683 20.123,15.493 19.969,15.272 C19.708,14.897 19.340,14.447 18.977,14.175 C18.857,14.049 18.737,13.922 18.617,13.797 C18.338,13.586 17.800,13.129 17.697,12.771 C17.637,12.562 17.749,12.372 17.805,12.267 C17.992,11.920 18.215,11.666 18.437,11.369 C18.922,10.714 19.401,10.090 19.843,9.389 C20.113,8.960 20.465,8.546 20.420,7.859 C20.349,7.805 20.296,7.715 20.203,7.680 C19.872,7.557 19.264,7.644 18.833,7.644 C18.491,7.644 18.148,7.644 17.805,7.644 C17.630,7.644 17.410,7.631 17.265,7.662 C17.181,7.680 17.050,7.655 16.994,7.644 C16.803,7.606 16.593,7.744 16.525,7.843 C16.441,7.963 16.427,8.112 16.363,8.256 C16.256,8.493 16.148,8.742 16.039,8.993 C15.701,9.762 15.212,10.445 14.758,11.098 C14.574,11.363 14.243,11.872 13.839,11.890 C13.665,11.725 13.563,11.695 13.478,11.422 C13.415,11.220 13.395,10.741 13.442,10.523 C13.442,10.288 13.442,10.055 13.442,9.821 C13.454,9.491 13.466,9.162 13.478,8.831 C13.478,8.409 13.525,7.902 13.370,7.627 C13.075,7.100 11.615,7.192 10.756,7.194 Z" class="cls-1"/>
</svg>
