<svg xmlns="http://www.w3.org/2000/svg" xmlns:xlink="http://www.w3.org/1999/xlink" preserveAspectRatio="xMidYMid" width="34" height="24" viewBox="0 0 34 24">
  <defs>
    <style>
      .cls-1 {
        fill: #fff;
        fill-rule: evenodd;
      }
    </style>
  </defs>
  <path d="M14.632,-0.002 C16.590,0.084 18.763,-0.144 20.857,0.169 C22.559,0.423 24.340,-0.009 25.873,0.340 C26.507,0.340 27.141,0.340 27.775,0.340 C29.521,0.725 30.381,0.397 31.666,1.282 C32.662,1.968 33.323,3.549 33.655,4.877 C33.683,5.534 33.712,6.191 33.741,6.847 C34.093,8.455 34.000,10.438 34.000,12.327 C34.001,16.750 33.791,20.966 31.147,22.772 C29.451,23.931 25.081,23.831 22.327,23.885 C21.261,23.885 20.194,23.885 19.128,23.885 C18.448,24.032 17.128,24.040 16.448,23.885 C15.395,23.646 14.023,24.016 13.075,23.800 C12.355,23.800 11.634,23.800 10.914,23.800 C9.469,23.798 7.312,23.845 5.985,23.543 C5.409,23.515 4.832,23.486 4.256,23.457 C2.184,22.795 1.001,20.833 0.451,18.662 C0.365,17.322 0.278,15.980 0.192,14.638 C-0.056,13.502 -0.071,10.548 0.192,9.416 C0.192,8.931 0.192,8.446 0.192,7.961 C0.525,6.489 0.445,4.871 0.970,3.680 C1.649,2.138 2.899,0.884 4.688,0.425 C5.092,0.425 5.495,0.425 5.899,0.425 C7.570,0.061 9.732,0.470 11.433,0.083 C12.348,-0.125 13.910,0.439 14.632,-0.002 ZM13.681,5.392 C13.681,9.786 13.681,14.182 13.681,18.577 C13.738,18.577 13.796,18.577 13.854,18.577 C14.394,17.919 15.375,17.601 16.102,17.122 C17.798,16.003 19.497,14.730 21.203,13.611 C21.815,13.211 23.411,12.491 23.711,11.898 C22.704,11.627 21.847,10.633 21.030,10.101 C19.436,9.062 17.834,8.179 16.275,7.105 C15.493,6.565 14.623,5.709 13.681,5.392 Z" class="cls-1"/>
</svg>
